<?xml version="1.0" encoding="utf-8"?>
<!-- Generator: Adobe Illustrator 22.1.0, SVG Export Plug-In . SVG Version: 6.00 Build 0)  -->
<svg version="1.1" id="Capa_1" xmlns="http://www.w3.org/2000/svg" xmlns:xlink="http://www.w3.org/1999/xlink" x="0px" y="0px"
	 viewBox="0 0 80 90" style="enable-background:new 0 0 80 90;" xml:space="preserve">
<style type="text/css">
	.st0{fill:#AFAFAF;}
	.st1{fill:#666666;}
</style>
<g>
	<rect x="60" y="15" class="st0" width="20" height="60"/>
	<path class="st1" d="M0,15v60l56,15V0L0,15z M41.6,53.3l-12,12c-0.6,0.6-1.5,1-2.4,1s-1.7-0.3-2.4-1l-11.9-12
		c-0.7-0.6-1-1.5-1.1-2.4c0-0.9,0.3-1.8,0.9-2.4c0.6-0.7,1.5-1.1,2.5-1.1c0.9,0,1.7,0.3,2.3,0.9l0.1,0.1l6.2,6.2v-30
		c0-1.9,1.5-3.4,3.4-3.4l0,0c1.9,0,3.4,1.5,3.4,3.4v30.1l6.2-6.2c0.6-0.7,1.5-1,2.4-1c0.1,0,0.2,0,0.3,0c1.9,0.2,3.2,1.8,3,3.7
		C42.5,52,42.2,52.7,41.6,53.3z"/>
</g>
</svg>
