<?xml version="1.0" encoding="utf-8"?>
<!-- Generator: Adobe Illustrator 16.0.0, SVG Export Plug-In . SVG Version: 6.00 Build 0)  -->
<!DOCTYPE svg PUBLIC "-//W3C//DTD SVG 1.1//EN" "http://www.w3.org/Graphics/SVG/1.1/DTD/svg11.dtd">
<svg version="1.1" id="Capa_1" xmlns="http://www.w3.org/2000/svg" xmlns:xlink="http://www.w3.org/1999/xlink" x="0px" y="0px"
	 width="371.216px" height="371.335px" viewBox="235.336 52.504 371.216 371.335"
	 enable-background="new 235.336 52.504 371.216 371.335" xml:space="preserve">
<g>
	<path fill="#FFFFFF" d="M596.195,62.861c-13.811-13.81-36.668-13.81-50.479,0L420.945,187.632L296.174,62.861
		c-13.81-13.81-36.669-13.81-50.479,0c-13.811,13.811-13.811,36.669,0,50.48l124.771,124.771l-124.771,124.77
		c-13.811,13.811-13.811,36.67,0,50.48c7.144,7.143,16.191,10.477,25.24,10.477s18.097-3.334,25.24-10.477l124.771-124.771
		l124.771,124.771c7.143,7.143,16.191,10.477,25.238,10.477c9.049,0,18.098-3.334,25.24-10.477c13.811-13.811,13.811-36.67,0-50.48
		l-124.77-124.77l124.77-124.771C610.005,99.531,610.005,76.672,596.195,62.861z"/>
</g>
</svg>
