<?xml version="1.0" encoding="utf-8"?>
<!-- Generator: Adobe Illustrator 22.1.0, SVG Export Plug-In . SVG Version: 6.00 Build 0)  -->
<svg version="1.1" id="Capa_1" xmlns="http://www.w3.org/2000/svg" xmlns:xlink="http://www.w3.org/1999/xlink" x="0px" y="0px"
	 viewBox="0 0 91 67" style="enable-background:new 0 0 91 67;" xml:space="preserve">
<g>
	<path d="M84.5,0h-78C2.9,0,0,2.9,0,6.5S2.9,13,6.5,13h78c3.6,0,6.5-2.9,6.5-6.5S88.1,0,84.5,0z"/>
	<path d="M84.5,27h-78C2.9,27,0,29.9,0,33.5S2.9,40,6.5,40h78c3.6,0,6.5-2.9,6.5-6.5S88.1,27,84.5,27z"/>
	<path d="M91,60.5c0-3.6-2.9-6.5-6.5-6.5h-78C2.9,54,0,56.9,0,60.5S2.9,67,6.5,67h78C88.1,67,91,64.1,91,60.5z"/>
</g>
</svg>
