<?xml version="1.0" encoding="utf-8"?>
<!-- Generator: Adobe Illustrator 16.0.0, SVG Export Plug-In . SVG Version: 6.00 Build 0)  -->
<!DOCTYPE svg PUBLIC "-//W3C//DTD SVG 1.1//EN" "http://www.w3.org/Graphics/SVG/1.1/DTD/svg11.dtd">
<svg version="1.1" id="Capa_1" xmlns="http://www.w3.org/2000/svg" xmlns:xlink="http://www.w3.org/1999/xlink" x="0px" y="0px"
	 width="362.406px" height="318.119px" viewBox="78.174 2.62 362.406 318.119" enable-background="new 78.174 2.62 362.406 318.119"
	 xml:space="preserve">
<path fill="#414A4E" d="M90.079,298.356c15.717-10,23.813-24.288,28.574-37.146c-25.24-27.145-40.479-61.908-40.479-100.006
	c0-87.625,81.435-158.583,181.441-158.583S440.58,73.578,440.58,161.679c0,88.101-80.958,159.06-180.965,159.06
	c-36.193,0-70.007-9.523-98.578-25.715c-25.717,15.236-53.338,14.762-69.054,12.381C87.221,306.926,86.27,300.737,90.079,298.356z"
	/>
<g>
	<path fill="#FFFFFF" d="M351.525,94.055H166.75c-7.619,0-14.285,6.191-14.285,14.287c0,7.62,6.189,14.287,14.285,14.287h184.775
		c7.62,0,14.286-6.191,14.286-14.287C365.812,100.722,359.621,94.055,351.525,94.055z"/>
	<path fill="#FFFFFF" d="M365.812,161.204c0-7.621-6.19-14.287-14.286-14.287H166.75c-7.619,0-14.285,6.19-14.285,14.287
		c0,8.096,6.189,14.287,14.285,14.287h184.775C359.146,175.491,365.812,169.299,365.812,161.204z"/>
	<path fill="#FFFFFF" d="M166.75,200.252c-8.096,0-14.285,6.191-14.285,14.287c0,7.621,6.189,14.287,14.285,14.287h95.246
		c7.619,0,14.287-6.191,14.287-14.287c0-7.619-6.191-14.287-14.287-14.287H166.75z"/>
</g>
</svg>
