<?xml version="1.0" encoding="utf-8"?>
<!-- Generator: Adobe Illustrator 22.1.0, SVG Export Plug-In . SVG Version: 6.00 Build 0)  -->
<svg version="1.1" id="Capa_1" xmlns="http://www.w3.org/2000/svg" xmlns:xlink="http://www.w3.org/1999/xlink" x="0px" y="0px"
	 viewBox="0 0 400 400" style="enable-background:new 0 0 400 400;" xml:space="preserve">
<style type="text/css">
	.st0{fill:#C63E3E;}
	.st1{fill:#FFFFFF;}
</style>
<g>
	<g>
		<circle class="st0" cx="200" cy="200" r="196"/>
	</g>
	<g>
		<path class="st1" d="M229.1,199l65.3-65.3c7.5-7.5,7.5-19.6,0-27.1c-7.5-7.5-19.6-7.5-27.1,0L202,171.9l-65.3-65.3
			c-7.5-7.5-19.6-7.5-27.1,0c-7.5,7.5-7.5,19.6,0,27.1l65.3,65.3l-65.3,65.3c-7.5,7.5-7.5,19.6,0,27.1c3.7,3.7,8.6,5.6,13.5,5.6
			s9.8-1.9,13.5-5.6l65.3-65.3l65.3,65.3c3.7,3.7,8.6,5.6,13.5,5.6s9.8-1.9,13.5-5.6c7.5-7.5,7.5-19.6,0-27.1L229.1,199z"/>
	</g>
</g>
<g>
</g>
<g>
</g>
<g>
</g>
<g>
</g>
<g>
</g>
<g>
</g>
<g>
</g>
<g>
</g>
<g>
</g>
<g>
</g>
<g>
</g>
<g>
</g>
<g>
</g>
<g>
</g>
<g>
</g>
</svg>
