<?xml version="1.0" encoding="utf-8"?>
<!-- Generator: Adobe Illustrator 22.1.0, SVG Export Plug-In . SVG Version: 6.00 Build 0)  -->
<svg version="1.1" id="Capa_1" xmlns="http://www.w3.org/2000/svg" xmlns:xlink="http://www.w3.org/1999/xlink" x="0px" y="0px"
	 viewBox="0 0 90.6 57.8" style="enable-background:new 0 0 90.6 57.8;" xml:space="preserve">
<g>
	<g>
		<g>
			<path d="M13.2,46.1c9.2,7.4,19.5,11.7,32.5,11.6c5.9,0,12.5-1,18.7-4.3c9.2-4.9,17.6-10.9,24.3-19c2.7-3.3,2.8-7.5-0.1-10.6
				C82.2,17,75.1,11.2,67.2,6.5C53-2.1,38.4-2,23.8,5.8C17.8,9,12.4,13.2,7,17.4c-3.4,3.6-5.1,6.3-6.5,9.3c-0.4,0.9-0.6,2-0.4,3
				c0.8,3.5,2,5.4,4.8,9.2C7,41.8,10.3,43.8,13.2,46.1z M42.5,11c11.2-0.8,20.1,6.8,20.8,18c0.7,9.8-7.5,19-17.6,19.6
				c-10.3,0.7-19.4-7.2-20.2-17.6C24.9,21.1,32.8,11.7,42.5,11z"/>
			<path d="M44.6,38.6c5,0.1,8.9-3.7,8.9-8.7c0-4.9-3.8-8.8-8.6-8.8C40,21,36,24.8,36,29.8C36,34.7,39.8,38.5,44.6,38.6z"/>
		</g>
	</g>
</g>
</svg>
