<?xml version="1.0" encoding="utf-8"?>
<!-- Generator: Adobe Illustrator 22.1.0, SVG Export Plug-In . SVG Version: 6.00 Build 0)  -->
<svg version="1.1" id="Capa_1" xmlns="http://www.w3.org/2000/svg" xmlns:xlink="http://www.w3.org/1999/xlink" x="0px" y="0px"
	 viewBox="0 0 80.9 88.4" style="enable-background:new 0 0 80.9 88.4;" xml:space="preserve">
<path d="M80.7,29.7c0-1.4-0.2-2.8-0.6-4.1c-1.3-3.8-3.4-7-7-9.1c-8.3-4.8-16.7-9.6-25-14.4c-2.3-1.3-4.7-2-7.3-2
	c-2.8-0.1-5.6,0.4-8.1,1.9C24.5,6.8,16,11.6,7.7,16.5c-5,2.9-7.6,7.5-7.7,13.2c-0.1,9.7,0,19.3,0,29c0,1.5,0.2,2.9,0.7,4.3
	c1.3,3.7,3.4,6.8,6.9,8.9c8.3,4.8,16.5,9.5,24.8,14.3c2.2,1.3,4.4,2,6.9,2.1c3,0.2,5.9-0.3,8.6-1.9c8.3-4.8,16.7-9.7,25-14.4
	c2.3-1.3,4.1-3.2,5.5-5.4c1.3-2.2,2.3-4.5,2.3-7.1c0-5.1,0-10.2,0-15.3h0C80.7,39.4,80.7,34.5,80.7,29.7z M40.4,18.8
	c5.4,0,9.8,3.9,9.8,10.5s-4.4,12-9.8,12c-5.4,0-9.8-5.4-9.8-12S35,18.8,40.4,18.8z M21.3,63.7c0-1,0-2.9,0.1-3.2
	c1-8.7,9-12.5,18.7-12.5c0.1,0,0.2,0,0.3,0c0.1,0,0.2,0,0.3,0c9.7,0,17.8,3.8,18.7,12.5c0,0.2,0,2.1,0.1,3.2
	C59.4,63.7,42.1,77,21.3,63.7z"/>
</svg>
