<?xml version="1.0" encoding="utf-8"?>
<!-- Generator: Adobe Illustrator 16.0.0, SVG Export Plug-In . SVG Version: 6.00 Build 0)  -->
<!DOCTYPE svg PUBLIC "-//W3C//DTD SVG 1.1//EN" "http://www.w3.org/Graphics/SVG/1.1/DTD/svg11.dtd">
<svg version="1.1" id="Capa_1" xmlns:sketch="http://www.bohemiancoding.com/sketch/ns"
	 xmlns="http://www.w3.org/2000/svg" xmlns:xlink="http://www.w3.org/1999/xlink" x="0px" y="0px" width="349.231px"
	 height="190.49px" viewBox="246.329 142.867 349.231 190.49" enable-background="new 246.329 142.867 349.231 190.49"
	 xml:space="preserve">
<title>action_107-menu-view-layout-item-list</title>
<desc>Created with Sketch.</desc>
<g sketch:type="MSPage">
	<g transform="translate(-315.000000, -495.000000)" sketch:type="MSArtboardGroup">
		<path sketch:type="MSShapeGroup" d="M902.611,637.867H569.279c-4.391,0-7.95,3.397-7.95,8.011v15.726
			c0,4.424,3.457,8.011,7.95,8.011h333.332c4.391,0,7.949-3.397,7.949-8.011v-15.726
			C910.56,641.454,907.103,637.867,902.611,637.867z M902.611,717.237H569.279c-4.391,0-7.95,3.397-7.95,8.011v15.726
			c0,4.424,3.457,8.011,7.95,8.011h333.332c4.391,0,7.949-3.397,7.949-8.011v-15.726
			C910.56,720.824,907.103,717.237,902.611,717.237z M902.611,796.609H569.279c-4.391,0-7.95,3.396-7.95,8.012v15.725
			c0,4.424,3.457,8.012,7.95,8.012h333.332c4.391,0,7.949-3.398,7.949-8.012v-15.725
			C910.56,800.195,907.103,796.609,902.611,796.609z"/>
	</g>
</g>
</svg>
