<?xml version="1.0" encoding="utf-8"?>
<!-- Generator: Adobe Illustrator 22.1.0, SVG Export Plug-In . SVG Version: 6.00 Build 0)  -->
<svg version="1.1" id="Capa_1" xmlns="http://www.w3.org/2000/svg" xmlns:xlink="http://www.w3.org/1999/xlink" x="0px" y="0px"
	 viewBox="0 0 80 90" style="enable-background:new 0 0 80 90;" xml:space="preserve">
<style type="text/css">
	.st0{fill:#FFFFFF;}
</style>
<g>
	<rect x="60" y="15" class="st0" width="20" height="60"/>
	<g>
		<path class="st0" d="M25.8,26L25.8,26c-0.5,0-0.6,0.1-0.6,0.1c-0.1,0.2-0.2,1,0.7,2.8C26.2,27,25.9,26.2,25.8,26z"/>
		<path class="st0" d="M27.1,37.2c-1.5,4-3.5,8.6-5.7,12.7c4.6-1.6,9.6-2.9,14-3.7C32.4,43.6,29.5,40.3,27.1,37.2z"/>
		<path class="st0" d="M0,15v60l56,15V0L0,15z M49.7,50.3c-0.5,1.6-1.7,2.6-3.4,2.6l0,0c-1.9,0-4.4-1.2-7.6-3.7
			c-6,0.8-13.8,2.9-20,5.3c-5.6,9.1-8.4,9.1-9.3,9.1c-0.7,0-1.4-0.2-2-0.7c-1.1-0.9-1.5-2.1-1.3-3.3c0.1-0.9,0.6-3.8,10.3-7.8
			c3.3-5.6,6.5-12.5,8.3-18c-2.7-4.2-3.5-7.2-2.5-9.1c0.4-0.8,1.3-1.9,3.4-2c0.1,0,0.2,0,0.3,0c1.1,0,2,0.5,2.7,1.3
			c0.8,1,1.6,3.1-0.1,9.3c2.9,4.2,7.4,9.1,11.4,12.4c1.3-0.1,2.4-0.2,3.4-0.2c3.2,0,5.1,0.6,6.1,1.9C49.8,48.2,50,49.2,49.7,50.3z"
			/>
		<path class="st0" d="M9.4,60.1c0,0,0,0.1,0.1,0.1c0.4-0.1,1.5-0.8,3.1-2.8C10.2,58.8,9.5,59.8,9.4,60.1z"/>
		<path class="st0" d="M46.3,49.5L46.3,49.5c0.1,0,0.1-0.1,0.2-0.1l0,0c-0.2-0.1-0.7-0.4-2.1-0.5C45.3,49.4,45.9,49.5,46.3,49.5z"/>
	</g>
</g>
</svg>
