<?xml version="1.0" encoding="utf-8"?>
<!-- Generator: Adobe Illustrator 22.1.0, SVG Export Plug-In . SVG Version: 6.00 Build 0)  -->
<svg version="1.1" id="Capa_1" xmlns="http://www.w3.org/2000/svg" xmlns:xlink="http://www.w3.org/1999/xlink" x="0px" y="0px"
	 viewBox="0 0 59.5 60" style="enable-background:new 0 0 59.5 60;" xml:space="preserve">
<path d="M36.1,0C23.1,0,12.6,10.5,12.6,23.4c0,2.8,0.5,5.4,1.4,7.9L3.1,42.2c-4.1,4-4.1,10.7,0,14.8c4,4.1,10.7,4.1,14.8,0
	l11.2-11.2c2.2,0.7,4.6,1.1,7,1.1c12.9,0,23.4-10.5,23.4-23.4S49,0,36.1,0z M36.1,33.1c-5.3,0-9.7-4.3-9.7-9.7s4.3-9.7,9.7-9.7
	s9.7,4.3,9.7,9.7S41.4,33.1,36.1,33.1z"/>
</svg>
