<?xml version="1.0" encoding="utf-8"?>
<!-- Generator: Adobe Illustrator 16.0.0, SVG Export Plug-In . SVG Version: 6.00 Build 0)  -->
<!DOCTYPE svg PUBLIC "-//W3C//DTD SVG 1.1//EN" "http://www.w3.org/Graphics/SVG/1.1/DTD/svg11.dtd">
<svg version="1.1" id="Capa_1" xmlns="http://www.w3.org/2000/svg" xmlns:xlink="http://www.w3.org/1999/xlink" x="0px" y="0px"
	 width="329.413px" height="329.489px" viewBox="191.401 20.335 329.413 329.489"
	 enable-background="new 191.401 20.335 329.413 329.489" xml:space="preserve">
<path opacity="0.05" fill="#FFFFFF" d="M520.814,83.663c0,0-72.08,14.746-79.119,15.849c-28.44,4.466-58.07,0-82.666-10.717
	c-16.427-8.756-33.449-16.444-52.222-19.001c-11.996-1.874-24.937-1.769-36.951-0.123l-52.799,9.439
	c-8.388,1.629-17.144,3.152-25.655,4.553V23.737c12.941-3.257,27.512-5.236,40.698-0.928c7.793,1.751,14.553,6.287,21.785,9.789
	c14.57,7.688,28.563,16.899,44.884,20.524c21.68,6.059,47.318,4.658,69.024-0.35l49.42-8.984l51.626-9.334l51.976-10.718V83.663"/>
<path opacity="0.05" fill-rule="evenodd" clip-rule="evenodd" fill="#FFFFFF" d="M260.417,273.829
	c33.098-8.039,70.872-3.73,99.881,10.611c24.972,14.921,56.424,21.208,86.859,15.744l73.656-13.31v59.682
	c-10.367,2.224-20.488,4.325-31.451,2.68c-5.85-0.929-11.418-2.435-16.672-4.764l-38.246-20.052
	c-21.891-9.789-48.824-13.414-74.146-8.633l-158.162,29.035l-10.735,1.733v-59.682l13.169-2.679l34.639-6.41
	C246.197,276.508,253.535,275.229,260.417,273.829"/>
<path opacity="0.05" fill="#FFFFFF" d="M191.401,178.107V132.19l136.157-24.85c33.93-4.186,67.028,2.347,95.222,17.145
	c25.533,13.414,59.017,16.794,88.612,9.667l9.421-1.961v45.917l-30.051-17.145c-21.225-9.912-46.406-14.097-71.449-10.595
	l-83.717,15.271c-10.017,1.856-30.068,5.481-30.068,5.481l-76.23,14.097C213.625,187.669,202.242,184.394,191.401,178.107"/>
<path opacity="0.05" fill="#FFFFFF" d="M520.814,193.85v45.252l-134.983,24.814c-33.913,4.203-67.01-2.33-95.223-17.127
	c-25.533-13.414-58.981-16.795-88.594-9.685l-10.612,1.997V193.85l31.242,16.443c21.225,9.912,46.39,14.115,71.467,10.613
	l83.7-15.271c10.018-1.855,30.051-5.48,30.051-5.48l76.248-14.098C498.889,183.711,510.412,187.948,520.814,193.85"/>
</svg>
