<?xml version="1.0" encoding="utf-8"?>
<!-- Generator: Adobe Illustrator 16.0.0, SVG Export Plug-In . SVG Version: 6.00 Build 0)  -->
<!DOCTYPE svg PUBLIC "-//W3C//DTD SVG 1.1//EN" "http://www.w3.org/Graphics/SVG/1.1/DTD/svg11.dtd">
<svg version="1.1" id="Capa_1" xmlns="http://www.w3.org/2000/svg" xmlns:xlink="http://www.w3.org/1999/xlink" x="0px" y="0px"
	 width="85.04px" height="20.206px" viewBox="0 0 85.04 20.206" enable-background="new 0 0 85.04 20.206" xml:space="preserve">
<g>
	<rect fill="#FFFFFF" width="20.207" height="20.206"/>
	<rect x="0.919" y="0.919" fill="#F6D000" width="18.369" height="18.369"/>
	
		<rect x="0.919" y="0.919" fill="none" stroke="#F6D000" stroke-width="0.1283" stroke-miterlimit="3.864" width="18.369" height="18.369"/>
	<path fill="#D53541" d="M19.288,4.446c0,0-4.02,0.822-4.412,0.884c-1.586,0.249-3.237,0-4.609-0.598
		c-0.916-0.488-1.865-0.917-2.912-1.06C6.686,3.568,5.964,3.574,5.294,3.666L2.35,4.192C1.882,4.283,1.394,4.368,0.919,4.446V1.104
		c0.722-0.182,1.534-0.292,2.27-0.052C3.623,1.15,4,1.403,4.403,1.599c0.813,0.429,1.593,0.942,2.503,1.145
		c1.209,0.338,2.639,0.26,3.849-0.02l2.756-0.501l2.879-0.521l2.898-0.598V4.446"/>
	<path fill="none" stroke="#D53541" stroke-width="0.1283" stroke-miterlimit="3.864" d="M19.288,4.446c0,0-4.02,0.822-4.412,0.884
		c-1.586,0.249-3.237,0-4.609-0.598c-0.916-0.488-1.865-0.917-2.912-1.06C6.686,3.568,5.964,3.574,5.294,3.666L2.35,4.192
		C1.882,4.283,1.394,4.368,0.919,4.446V1.104c0.722-0.182,1.534-0.292,2.27-0.052C3.623,1.15,4,1.403,4.403,1.599
		c0.813,0.429,1.593,0.942,2.503,1.145c1.209,0.338,2.639,0.26,3.849-0.02l2.756-0.501l2.879-0.521l2.898-0.598V4.446z"/>
	<path fill-rule="evenodd" clip-rule="evenodd" fill="#D53541" d="M4.768,15.051c1.846-0.448,3.952-0.208,5.57,0.592
		c1.392,0.832,3.146,1.183,4.843,0.878l4.107-0.742v3.328c-0.578,0.124-1.143,0.241-1.754,0.149
		c-0.325-0.052-0.637-0.136-0.93-0.266l-2.132-1.118c-1.222-0.546-2.724-0.748-4.135-0.481l-8.82,1.619l-0.599,0.097v-3.328
		l0.734-0.149l1.932-0.357C3.975,15.2,4.384,15.129,4.768,15.051"/>
	<path fill="none" stroke="#D53541" stroke-width="0.1283" stroke-miterlimit="3.864" d="M4.768,15.051
		c1.846-0.448,3.952-0.208,5.57,0.592c1.392,0.832,3.146,1.183,4.843,0.878l4.107-0.742v3.328c-0.578,0.124-1.143,0.241-1.754,0.149
		c-0.325-0.052-0.637-0.136-0.93-0.266l-2.132-1.118c-1.222-0.546-2.724-0.748-4.135-0.481l-8.82,1.619l-0.599,0.097v-3.328
		l0.734-0.149l1.932-0.357C3.975,15.2,4.384,15.129,4.768,15.051z"/>
	<path fill="#D53541" d="M0.919,9.713V7.152l7.593-1.386c1.892-0.233,3.737,0.131,5.311,0.956c1.424,0.748,3.29,0.937,4.94,0.539
		l0.525-0.109v2.561l-1.676-0.956c-1.184-0.553-2.587-0.786-3.984-0.591L8.96,9.018C8.401,9.121,7.283,9.323,7.283,9.323
		l-4.251,0.786C2.158,10.246,1.523,10.063,0.919,9.713"/>
	<path fill="none" stroke="#D53541" stroke-width="0.1283" stroke-miterlimit="3.864" d="M0.919,9.713V7.152l7.593-1.386
		c1.892-0.233,3.737,0.131,5.311,0.956c1.424,0.748,3.29,0.937,4.94,0.539l0.525-0.109v2.561l-1.676-0.956
		c-1.184-0.553-2.587-0.786-3.984-0.591L8.96,9.018C8.401,9.121,7.283,9.323,7.283,9.323l-4.251,0.786
		C2.158,10.246,1.523,10.063,0.919,9.713z"/>
	<path fill="#D53541" d="M19.288,10.591v2.523l-7.526,1.384c-1.892,0.234-3.737-0.13-5.311-0.955
		c-1.424-0.748-3.289-0.937-4.94-0.54l-0.592,0.111v-2.523l1.742,0.917c1.184,0.553,2.587,0.787,3.985,0.592l4.667-0.852
		c0.56-0.104,1.677-0.306,1.677-0.306l4.252-0.786C18.066,10.025,18.708,10.262,19.288,10.591"/>
	<path fill="none" stroke="#D53541" stroke-width="0.1283" stroke-miterlimit="3.864" d="M19.288,10.591v2.523l-7.526,1.384
		c-1.892,0.234-3.737-0.13-5.311-0.955c-1.424-0.748-3.289-0.937-4.94-0.54l-0.592,0.111v-2.523l1.742,0.917
		c1.184,0.553,2.587,0.787,3.985,0.592l4.667-0.852c0.56-0.104,1.677-0.306,1.677-0.306l4.252-0.786
		C18.066,10.025,18.708,10.262,19.288,10.591z"/>
	<path fill-rule="evenodd" clip-rule="evenodd" fill="#312E2A" d="M23.021,17.592V12.58h0.816c1.696,0,2.625,0.892,2.625,2.513
		c0,1.657-0.892,2.499-2.638,2.499H23.021 M21.124,10.909v8.379h2.801c2.839,0,4.51-1.559,4.51-4.195
		c0-2.626-1.708-4.184-4.61-4.184H21.124z"/>
	<polygon fill="#312E2A" points="29.119,10.909 29.119,19.288 34.671,19.288 34.671,17.592 30.99,17.592 30.99,15.683 
		34.633,15.683 34.633,13.986 30.99,13.986 30.99,12.593 34.671,12.593 34.671,10.909 	"/>
	<path fill-rule="evenodd" clip-rule="evenodd" fill="#312E2A" d="M43.768,15.117h-1.57l0.201-0.578
		c0.163-0.489,0.227-0.653,0.276-0.854c0.024-0.076,0.075-0.227,0.138-0.452l0.088-0.314c0.013-0.037,0.038-0.125,0.075-0.276
		c0.088,0.352,0.151,0.604,0.29,1.018l0.15,0.465c0.088,0.251,0.126,0.389,0.139,0.414L43.768,15.117 M41.871,10.909l-3.053,8.379
		h1.984l0.905-2.551h2.562l0.892,2.551h2.023l-3.115-8.379H41.871z"/>
	<path fill-rule="evenodd" clip-rule="evenodd" fill="#312E2A" d="M49.432,14.263v-1.758h0.854c0.816,0,1.181,0.264,1.181,0.866
		s-0.402,0.892-1.206,0.892H49.432 M47.51,19.288h1.922v-3.442h0.238c1.206,0,1.332,0.126,2.136,2.198
		c0.088,0.226,0.139,0.364,0.176,0.427l0.163,0.39c0.113,0.264,0.126,0.289,0.201,0.428h2.299c-0.465-0.516-0.854-1.219-1.596-2.928
		c-0.326-0.716-0.515-0.93-1.117-1.181c0.979-0.301,1.532-1.017,1.532-2.01c0-1.507-0.992-2.261-2.989-2.261H47.51V19.288z"/>
	<path fill-rule="evenodd" clip-rule="evenodd" fill="#312E2A" d="M58.031,15.117h-1.57l0.201-0.578
		c0.163-0.489,0.227-0.653,0.276-0.854c0.025-0.076,0.075-0.227,0.139-0.452l0.087-0.314c0.013-0.037,0.038-0.125,0.076-0.276
		c0.088,0.352,0.15,0.604,0.288,1.018l0.151,0.465c0.088,0.251,0.126,0.389,0.138,0.414L58.031,15.117 M56.135,10.909l-3.053,8.379
		h1.984l0.905-2.551h2.563l0.892,2.551h2.021l-3.114-8.379H56.135z"/>
	<path fill="#312E2A" d="M67.8,15.004h-1.872v2.638c-0.364,0.101-0.515,0.113-0.804,0.113c-1.432,0-2.487-1.118-2.487-2.638
		c0-1.633,1.118-2.726,2.776-2.726c0.829,0,1.52,0.214,2.387,0.729v-1.909c-0.992-0.364-1.696-0.503-2.55-0.503
		c-2.714,0-4.598,1.822-4.598,4.435c0,2.575,1.847,4.32,4.598,4.32c0.854,0,1.758-0.15,2.55-0.439V15.004"/>
	<path fill-rule="evenodd" clip-rule="evenodd" fill="#312E2A" d="M75.261,15.104c0,1.583-0.93,2.638-2.337,2.638
		c-1.419,0-2.387-1.067-2.387-2.638c0-1.569,0.942-2.638,2.35-2.638C74.306,12.467,75.261,13.522,75.261,15.104 M77.258,15.08
		c0-2.5-1.859-4.321-4.396-4.321c-2.475,0-4.309,1.847-4.309,4.346c0,2.513,1.834,4.334,4.371,4.334S77.258,17.63,77.258,15.08"/>
	<path fill="#312E2A" d="M77.981,10.909v8.379h1.908v-3.417v-0.44l-0.013-0.438l-0.012-0.479c0-0.062,0-0.188-0.025-0.401
		l-0.013-0.313c0.063,0.125,0.101,0.213,0.139,0.276c0.012,0.012,0.088,0.138,0.226,0.39l0.339,0.577
		c0.013,0.025,0.139,0.214,0.364,0.565l0.327,0.527l2.047,3.153h1.771v-8.379h-1.909v3.103c0,0.778,0.024,1.382,0.063,1.885
		c0,0.063,0.013,0.163,0.025,0.301c-0.251-0.527-0.591-1.093-1.055-1.809l-2.274-3.479H77.981"/>
	<path fill="#312E2A" d="M28.136,5.002h-1.872V7.64c-0.364,0.101-0.515,0.113-0.804,0.113c-1.432,0-2.487-1.118-2.487-2.638
		c0-1.633,1.118-2.726,2.776-2.726c0.829,0,1.52,0.213,2.387,0.728V1.209c-0.992-0.365-1.695-0.503-2.55-0.503
		c-2.713,0-4.598,1.821-4.598,4.435c0,2.575,1.847,4.32,4.598,4.32c0.854,0,1.759-0.15,2.55-0.439V5.002"/>
	<path fill-rule="evenodd" clip-rule="evenodd" fill="#312E2A" d="M35.587,5.103c0,1.583-0.93,2.638-2.336,2.638
		c-1.42,0-2.387-1.067-2.387-2.638s0.942-2.638,2.349-2.638C34.633,2.465,35.587,3.52,35.587,5.103 M37.585,5.077
		c0-2.499-1.859-4.321-4.397-4.321c-2.474,0-4.308,1.847-4.308,4.347c0,2.513,1.834,4.334,4.371,4.334S37.585,7.628,37.585,5.077"/>
	<path fill-rule="evenodd" clip-rule="evenodd" fill="#312E2A" d="M40.12,7.577V5.63h1.056c0.992,0,1.407,0.276,1.407,0.98
		c0,0.678-0.402,0.967-1.332,0.967H40.12 M40.12,4.035V2.502h0.817c0.892,0,1.205,0.201,1.205,0.741
		c0,0.565-0.326,0.792-1.143,0.792H40.12z M38.211,0.907v8.378h3.468c1.846,0,2.926-0.917,2.926-2.487
		c0-1.08-0.615-1.858-1.745-2.186c0.766-0.376,1.143-0.967,1.143-1.721c0.013-1.331-0.892-1.984-2.7-1.984H38.211z"/>
	<rect x="45" y="0.907" fill="#312E2A" width="1.871" height="8.378"/>
	<polygon fill="#312E2A" points="47.687,0.907 47.687,9.285 53.238,9.285 53.238,7.59 49.559,7.59 49.559,5.681 53.2,5.681 
		53.2,3.984 49.559,3.984 49.559,2.59 53.238,2.59 53.238,0.907 	"/>
	<path fill-rule="evenodd" clip-rule="evenodd" fill="#312E2A" d="M55.973,4.261V2.502h0.854c0.816,0,1.181,0.265,1.181,0.867
		s-0.401,0.892-1.206,0.892H55.973 M54.051,9.285h1.922V5.844h0.238c1.206,0,1.331,0.125,2.136,2.198
		c0.088,0.227,0.138,0.364,0.176,0.428l0.163,0.389c0.112,0.264,0.125,0.289,0.201,0.427h2.298
		c-0.465-0.515-0.854-1.218-1.595-2.927c-0.326-0.716-0.516-0.929-1.118-1.181c0.979-0.301,1.532-1.018,1.532-2.01
		c0-1.507-0.992-2.261-2.989-2.261h-2.964V9.285z"/>
	<path fill="#312E2A" d="M60.747,0.907v8.378h1.91V5.869V5.43l-0.013-0.44l-0.013-0.477c0-0.063,0-0.188-0.025-0.402l-0.013-0.314
		c0.063,0.126,0.101,0.214,0.139,0.276c0.013,0.013,0.088,0.139,0.226,0.39l0.34,0.578c0.012,0.025,0.138,0.214,0.364,0.565
		l0.326,0.527l2.048,3.152h1.771V0.907h-1.909V4.01c0,0.779,0.025,1.382,0.063,1.884c0,0.063,0.013,0.164,0.025,0.302
		c-0.251-0.527-0.591-1.093-1.055-1.809l-2.273-3.479H60.747"/>
	<path fill-rule="evenodd" clip-rule="evenodd" fill="#312E2A" d="M75.274,5.103c0,1.583-0.93,2.638-2.337,2.638
		c-1.419,0-2.386-1.067-2.386-2.638s0.941-2.638,2.349-2.638C74.319,2.465,75.274,3.52,75.274,5.103 M77.271,5.077
		c0-2.499-1.858-4.321-4.396-4.321c-2.475,0-4.309,1.847-4.309,4.347c0,2.513,1.834,4.334,4.371,4.334S77.271,7.628,77.271,5.077"/>
</g>
</svg>
